<svg xmlns="http://www.w3.org/2000/svg" width="1200" height="800" viewBox="0 0 1200 800">
  <defs>
    <linearGradient id="g" x1="0" x2="1" y1="0" y2="1">
      <stop offset="0" stop-color="#4f7cff"/>
      <stop offset="1" stop-color="#ef4444"/>
    </linearGradient>
    <filter id="shadow" x="-20%" y="-20%" width="140%" height="140%">
      <feDropShadow dx="0" dy="18" stdDeviation="18" flood-color="#000" flood-opacity=".25"/>
    </filter>
  </defs>
  <rect width="1200" height="800" rx="48" fill="#0b0d10"/>
  <rect x="70" y="70" width="1060" height="660" rx="44" fill="#11161c" stroke="#1d2631" filter="url(#shadow)"/>
  <circle cx="210" cy="205" r="86" fill="url(#g)" opacity=".95"/>
  <text x="210" y="220" text-anchor="middle" font-size="44" font-family="Inter, Arial, sans-serif" fill="#ffffff" font-weight="700">SIA</text>

  <text x="340" y="210" font-size="54" font-family="Inter, Arial, sans-serif" fill="#e7eef7" font-weight="800">Academic System</text>
  <text x="340" y="268" font-size="26" font-family="Inter, Arial, sans-serif" fill="#a9b3bf">Multi-role dashboard</text>

  <rect x="130" y="330" width="940" height="14" rx="7" fill="url(#g)" opacity=".85"/>
  <rect x="130" y="380" width="720" height="16" rx="8" fill="#1d2631"/>
  <rect x="130" y="420" width="820" height="16" rx="8" fill="#1d2631"/>
  <rect x="130" y="460" width="640" height="16" rx="8" fill="#1d2631"/>

  <g opacity=".9">
    <rect x="130" y="560" width="200" height="50" rx="25" fill="url(#g)"/>
    <text x="230" y="593" text-anchor="middle" font-size="18" font-family="Inter, Arial, sans-serif" fill="#ffffff" font-weight="700">PROJECT</text>

    <rect x="350" y="560" width="220" height="50" rx="25" fill="#0b0d10" stroke="#1d2631"/>
    <text x="460" y="593" text-anchor="middle" font-size="18" font-family="Inter, Arial, sans-serif" fill="#e7eef7" font-weight="700">DETAILS</text>
  </g>
</svg>